<?xml version="1.0" encoding="utf-8"?>
<!-- Generator: Adobe Illustrator 16.0.4, SVG Export Plug-In . SVG Version: 6.00 Build 0)  -->
<!DOCTYPE svg PUBLIC "-//W3C//DTD SVG 1.1//EN" "http://www.w3.org/Graphics/SVG/1.1/DTD/svg11.dtd">
<svg version="1.1" xmlns="http://www.w3.org/2000/svg" xmlns:xlink="http://www.w3.org/1999/xlink" x="0px" y="0px" width="1920px"
	 height="1080px" viewBox="-475 560 1920 1080" enable-background="new -475 560 1920 1080" xml:space="preserve">
<g id="svg2" inkscape:output_extension="org.inkscape.output.svg.inkscape" sodipodi:docname="Human body silhouette.svg" sodipodi:docbase="D:\DougsDocs\Wikipedia" inkscape:version="0.45.1" sodipodi:version="0.32" xmlns:inkscape="http://www.inkscape.org/namespaces/inkscape" xmlns:sodipodi="http://sodipodi.sourceforge.net/DTD/sodipodi-0.dtd" xmlns:svg="http://www.w3.org/2000/svg" xmlns:rdf="http://www.w3.org/1999/02/22-rdf-syntax-ns#" xmlns:cc="http://web.resource.org/cc/" xmlns:dc="http://purl.org/dc/elements/1.1/">
	<g id="layer1" transform="translate(41.500029,630.92312)" inkscape:groupmode="layer" inkscape:label="Layer 1">
		<path id="path2180" fill="#3672A3" fill-opacity="0.375" d="M1258.85,304.767c-1.425,3.177-5.798,7.887-9.499,10.231
			c-1.467,0.93-4.896,2.305-7.619,3.057c-2.724,0.751-6.838,2.301-9.144,3.444c-5.395,2.674-20.227,5.075-37.715,6.104
			c-11.729,0.69-13.707,1.019-20.952,3.472c-4.399,1.491-10.058,3.188-12.572,3.772c-2.514,0.584-5.942,1.395-7.619,1.803
			c-1.676,0.409-6.304,0.984-10.285,1.278c-5.501,0.408-8.976,1.186-14.477,3.243c-3.981,1.488-9.467,2.947-12.19,3.243
			c-3.089,0.335-7.208,1.554-10.946,3.238c-8.487,3.823-12.95,4.17-21.055,1.638c-11.603-3.625-28.562-3.366-55.239,0.844
			c-13.467,2.125-46.667,8.106-57.524,10.363c-15.265,3.173-18.736,4.124-43.931,12.03c-21.435,6.727-25.927,7.154-103.501,9.849
			l-19.048,0.662l-10.279,3.996c-5.653,2.197-12.683,5.206-15.619,6.686c-8.367,4.216-25.199,9.821-34.71,11.559
			c-6.073,1.109-11.877,1.588-19.366,1.597c-5.881,0.007-13.779,0.342-17.551,0.743c-3.771,0.402-12.857,1.101-20.19,1.554
			c-7.333,0.454-17.962,1.481-23.62,2.284c-13.109,1.859-53.646,10.231-77.334,15.973c-11.238,2.724-23.373,5.104-31.485,6.175
			c-7.259,0.959-13.678,2.106-14.263,2.549c-0.877,0.662-0.471,1.726,2.283,5.984c2.701,4.174,3.447,6.097,3.85,9.905
			c0.296,2.799,0.167,5.591-0.316,6.849c-0.616,1.606-0.585,2.19,0.131,2.399c0.518,0.153,7.8,1.188,16.182,2.299
			c8.381,1.111,20.553,3.192,27.047,4.624c16.294,3.593,42.934,7.812,55.049,8.72c5.553,0.416,13.524,1.262,17.715,1.878
			c7.907,1.162,43.886,2.749,62.478,2.755c16.434,0.006,23.675,0.995,35.429,4.842c5.657,1.851,13.715,4.805,17.905,6.566
			c4.19,1.761,11.138,4.191,15.438,5.402c11.058,3.114,13.257,3.086,66.141-0.863c5.896-0.439,15.839-0.799,22.096-0.798
			c15.917,0.003,23.429,1.293,62.425,10.722c6.704,1.621,15.275,3.516,19.048,4.211c3.771,0.695,10.114,1.949,14.095,2.788
			c3.981,0.838,9.296,1.812,11.811,2.162c2.514,0.351,8.343,1.333,12.952,2.181c11.35,2.086,31.811,3.896,44.061,3.896
			c8.24,0,11.439-0.348,17.604-1.911c11.188-2.838,16.467-3.098,22.909-1.13c19.142,5.849,24.874,6.88,42.286,7.604
			c13.021,0.542,15.659,0.874,21.334,2.684c3.562,1.137,8.019,2.847,9.904,3.8c4.873,2.463,13.177,3.579,25.757,3.462
			c5.995-0.056,11.995,0.235,13.333,0.646c1.34,0.41,6.003,1.646,10.364,2.745c4.361,1.101,9.301,2.7,10.978,3.556
			c1.676,0.855,4.794,2.058,6.928,2.672c2.135,0.615,5.68,2.336,7.878,3.824c3.4,2.303,4.169,3.283,5.143,6.562
			c2.385,8.03,0.979,14.611-3.791,17.736c-2.684,1.759-11.002,1.164-15.444-1.104c-2.552-1.302-3.238-1.421-3.238-0.561
			c0,1.302,8.255,6.058,12.571,7.244c1.677,0.46,3.429,1.094,3.894,1.409c1.439,0.972,3.345,5.335,3.345,7.659
			c0,3.15-2.989,7.248-5.921,8.117c-1.945,0.576-2.46,1.139-2.46,2.688c0,2.673-1.989,5.3-4.95,6.537
			c-1.731,0.723-2.596,1.678-2.9,3.204c-0.514,2.569-3.118,3.985-7.331,3.985c-1.792,0-3.321,0.488-3.963,1.267
			c-1.875,2.269-8.824,4.829-13.108,4.829c-4.837,0-23.738-4.198-26.415-5.867c-1.048-0.653-2.762-1.979-3.81-2.947
			c-1.048-0.967-4.647-3.139-8-4.824c-3.353-1.687-9.01-5.47-12.571-8.409c-6.913-5.703-8.986-7.192-16.763-12.038
			c-3.384-2.108-6.441-3.338-9.655-3.881c-3.152-0.532-7.925-2.424-14.476-5.739c-10.62-5.372-12.929-5.863-22.346-4.75
			c-5.035,0.595-6.572,0.311-24.357-4.511c-6.295-1.707-12.089-1.407-36.216,1.875c-12.152,1.652-29.467,3.729-38.477,4.613
			c-9.01,0.886-22.209,2.265-29.334,3.067c-7.123,0.801-16.552,1.828-20.952,2.281c-4.399,0.452-16.743,2.056-27.43,3.562
			c-17.562,2.477-21.148,2.747-37.334,2.819c-17.347,0.078-19.926-0.104-48.382-3.412c-8.84-1.028-17.632-2.474-32.762-5.389
			c-11.897-2.291-12.494-2.331-24.763-1.686c-6.914,0.364-22.686,0.662-35.048,0.662c-24.594,0-21.548-0.409-37.715,5.062
			c-7.958,2.691-25.639,5.869-50.485,9.071c-6.596,0.851-17.011,2.39-23.144,3.421s-12.315,1.875-13.738,1.875
			c-1.422,0-7.033,0.84-12.467,1.865c-5.436,1.024-15.025,2.568-21.311,3.432c-6.287,0.862-14.857,2.084-19.049,2.716
			c-30.923,4.66-95.164,11.126-98.795,9.943c-0.559-0.182-12.33-0.519-26.159-0.749c-43.783-0.729-66.285-3.17-81.967-8.893
			c-12.866-4.696-25.178-6.188-52.892-6.412c-18.514-0.149-19.263-0.253-47.62-6.582c-20.319-4.534-30.725-5.523-58.667-5.573
			c-19.492-0.034-32.721,0.906-48.763,3.467c-15.293,2.442-15.509,2.866-2.456,4.82c7.782,1.165,35.824,7.942,54.266,13.115
			c6.515,1.826,8.649,2.044,21.334,2.176c7.752,0.081,15.639,0.531,17.524,1c4.875,1.213,25.703,8.372,29.334,10.083
			c5.276,2.485,17.27,7.349,24,9.73c29.894,10.584,54.976,20.518,72.001,28.518c22.455,10.55,34.992,15.552,64.382,25.688
			c18.803,6.484,32.105,11.184,34.668,12.247c0.838,0.349,3.066,0.812,4.952,1.03c1.886,0.218,6,0.794,9.144,1.279
			c3.391,0.523,8.037,0.665,11.428,0.35c13.51-1.259,11.41-1.463,39.239,3.812c16.847,3.193,15.141,3.271,42.667-1.949
			c4.191-0.795,11.505-1.541,16.254-1.659c8.626-0.214,8.635-0.213,10.477,1.924c1.023,1.188,1.842,3.109,1.842,4.326
			c0,3.743-2.557,4.952-14.384,6.801c-5.847,0.915-12.957,2.328-15.8,3.142c-2.844,0.813-8.173,2.03-11.842,2.705
			c-8.069,1.482-9.597,2.747-6.398,5.299c1.21,0.964,3.257,1.939,4.549,2.166c1.293,0.227,11.951,0.626,23.684,0.887
			c29.773,0.662,35.074,1.169,37.485,3.58c2.263,2.263,2.563,6.467,0.67,9.356c-1.429,2.18-2.673,2.272-14.535,1.084
			c-6.077-0.608-9.905-0.503-18.915,0.523c-9.336,1.063-12.312,1.133-17.144,0.396c-6.899-1.05-11.562-1.139-11.562-0.222
			c0,0.362,2.143,0.859,4.762,1.104c2.619,0.246,8.02,0.818,12,1.272c3.982,0.454,16.262,0.961,27.291,1.127
			c16.386,0.246,20.378,0.516,21.838,1.473c3.312,2.171,3.406,8.753,0.166,11.696c-1.493,1.356-3.286,1.593-16.531,2.176
			c-18.607,0.82-31.094,0.854-36.816,0.1c-2.953-0.388-4.273-0.325-3.954,0.19c0.263,0.428,1.466,0.775,2.674,0.775
			s2.407,0.344,2.667,0.763c0.291,0.47,6.873,0.762,17.212,0.762c17.79,0,21.032,0.526,22.728,3.694
			c1.484,2.774,0.959,6.035-1.4,8.675l-2.223,2.488l-17.016,0.47c-9.357,0.258-19.587,0.165-22.729-0.207
			c-3.144-0.371-11.886-1.404-19.429-2.295c-14.605-1.725-29.334-2.626-29.334-1.794c0,0.521,6.578,8.185,11.68,13.604
			c5.127,5.449,7.386,12.003,7.343,21.307c-0.028,6.26-1.479,8.915-4.871,8.915c-1.57,0-2.239-0.598-3.202-2.856
			c-3.273-7.682-4.133-9.334-4.852-9.334c-0.428,0-4.458-3.661-8.955-8.137c-4.496-4.475-10.236-9.644-12.754-11.484
			c-8.088-5.913-8.77-6.495-8.77-7.485c0-0.535-0.92-1.696-2.043-2.58s-3.095-3.098-4.381-4.92
			c-5.818-8.242-16.607-20.208-20.047-22.232c-5.962-3.509-9.146-4.876-11.398-4.891c-1.939-0.013-6.482-1.119-21.942-5.343
			c-2.933-0.802-7.885-2.153-11.004-3.005c-3.119-0.851-8.667-2.066-12.331-2.702c-3.664-0.636-9.886-2.324-13.83-3.751
			c-11.451-4.146-21.989-6.312-59.599-12.251c-25.979-4.103-38.649-6.305-48.001-8.344c-4.609-1.005-14.552-2.906-22.095-4.225
			c-12.873-2.249-29.709-6.547-39.239-10.016c-2.305-0.837-7.962-2.831-12.572-4.43s-10.609-3.934-13.333-5.187
			c-14.234-6.556-24.997-9.168-47.62-11.56c-8.381-0.887-22.096-2.454-30.477-3.485c-42.386-5.208-43.855-5.312-72.763-5.105
			c-41.911,0.299-57.157-1.002-83.811-7.15c-15.349-3.54-26.957-7.321-31.235-10.177c-8.179-5.457-13.879-12.894-18.167-23.702
			c-2.33-5.875-3.649-8.464-8.116-15.938c-1.378-2.305-3.759-7.56-5.29-11.678c-6.583-17.696-26.668-59.496-33.746-70.228
			c-4.851-7.355-9.505-12.076-13.582-13.781c-3.956-1.652-16.141-3.366-26.701-3.756c-9.257-0.34-9.799-0.273-14.675,1.813
			c-10.767,4.608-19.628,7.116-33.887,9.59c-7.31,1.269-8.128,1.565-8.128,2.954c0,0.506-0.897,2.242-1.994,3.855
			c-2.651,3.902-11.511,8.018-22.973,10.67c-9.838,2.277-13.595,2.441-19.659,0.862c-4.565-1.188-5.912-1.979-8.228-4.831
			c-1.238-1.523-1.863-1.693-4.577-1.245c-1.729,0.286-3.718,0.823-4.421,1.191c-0.703,0.369-5.674,1.044-11.048,1.499
			c-5.373,0.455-10.526,1.192-11.451,1.637c-1.191,0.574-3.854,0.562-9.143-0.04c-4.771-0.543-7.554-0.583-7.716-0.11
			c-0.326,0.947-2.946,0.963-3.528,0.021c-0.244-0.396-2.064-0.927-4.045-1.183c-1.981-0.254-4.197-0.789-4.925-1.186
			c-0.728-0.398-2.232-0.724-3.344-0.724c-1.112,0-3.774-1.087-5.916-2.415s-5.832-3.521-8.201-4.869
			c-3.947-2.248-12.494-8.855-20.059-15.505c-3.69-3.243-8.671-9.729-9.268-12.068c-0.241-0.942-0.758-1.714-1.15-1.714
			c-0.392,0-0.633-0.43-0.536-0.953c0.098-0.523-0.078-2.029-0.39-3.346c-0.437-1.844-0.895-2.309-1.991-2.021
			c-1.196,0.312-1.512-0.215-1.976-3.309c-0.304-2.023-1.026-4.815-1.606-6.202c-0.58-1.388-0.842-2.865-0.583-3.284
			s0.073-1.241-0.414-1.826c-0.486-0.587-0.936-2.715-0.998-4.729c-0.063-2.016-0.466-3.908-0.895-4.208
			c-0.514-0.357-0.326-1.822,0.552-4.292c1.566-4.409,1.694-6.727,0.396-7.159c-0.696-0.231-0.618-0.798,0.303-2.203
			c1.171-1.788,1.188-4.705,0.044-7.517c-0.256-0.629-0.549-2.171-0.652-3.429c-0.103-1.257-0.426-3.449-0.718-4.871
			c-0.365-1.775-0.273-2.424,0.293-2.075c0.557,0.345,0.817-0.955,0.803-4.001c-0.023-4.835,1.129-7.763,4.153-10.557
			c1.008-0.931,2.267-3.243,2.797-5.136s1.732-4.217,2.671-5.164c0.939-0.947,2.585-3.436,3.658-5.531
			c3.238-6.325,9.44-12.172,24.917-23.489c1.886-1.378,4.629-2.945,6.095-3.481c1.467-0.536,3.607-1.477,4.755-2.089
			c2.868-1.529,9.615-2.736,17.34-3.098c7.772-0.365,6.775-0.388,20.953,0.492c14.423,0.896,22.353,1.955,27.011,3.609l3.661,1.301
			l2.414-2.031c2.599-2.187,10.995-5.118,14.66-5.118c3.878,0,19.022,3.716,25.65,6.293c3.983,1.549,7.318,3.438,8.953,5.072
			c2.612,2.61,2.807,3.094,2.923,7.272l0.062,2.256l10.667,2.17c15.698,3.192,16.553,3.38,19.048,4.178
			c2.25,0.721,12.569,0.638,24.217-0.192c8.944-0.639,20.036-3.099,23.733-5.266c4.642-2.721,10.17-9.068,14.034-16.117
			c16.183-29.517,29.934-57.509,36.658-74.622c5.337-13.582,57.35-60.373,83.837-64.438c10.25-1.573,14.02-1.708,52.191-1.879
			c39.364-0.177,56.942-0.921,79.046-3.347c39.385-4.321,74.194-11.522,86.67-16.874c11-4.718,38.859-14.106,49.525-16.689
			c3.562-0.862,13.505-2.605,22.095-3.874c8.591-1.267,23.848-3.646,33.906-5.287c18.331-2.99,34.321-5.399,45.715-6.888
			c11.874-1.551,21.225-3.157,26.958-4.629c6.597-1.695,30.975-9.411,42.377-13.414c4.19-1.471,11.562-3.802,16.381-5.178
			c15.664-4.475,19.495-6.214,24.984-11.348c2.724-2.548,9.404-9.725,14.844-15.948c6.1-6.978,11.207-12.09,13.324-13.334
			c4.114-2.418,10.565-7.445,15.857-12.357c2.126-1.973,5.287-4.313,7.026-5.2c4.579-2.336,13.718-14.556,15.919-14.556
			c3.786,0,5.118,2.557,4.613,8.853c-0.623,7.744-4.281,14.349-12.721,22.958l-6.908,7.048h4.681c4.931,0,7.269-0.325,25.048-3.48
			c18.082-3.208,19.543-3.346,35.645-3.362c17.867-0.018,22.975,7.962,21.725,10.52c-1.83,3.746-4.178,4.419-18.998,5.447
			c-18.371,1.276-21.594,1.764-28.366,4.298c-2.669,0.999-6.011,1.815-7.429,1.815c-1.416,0-2.576,0.343-2.576,0.762
			c0,1.134,4.875,0.923,10.131-0.44c5.887-1.524,20.617-1.773,30.412-0.512c4.069,0.523,11.819,0.952,17.222,0.952
			c9.304,0,15.236,8.694,13.651,11.354c-2.186,3.665-3.472,3.881-21.51,3.623c-16.387-0.234-24.247,0.128-38.063,1.754
			c-11.232,1.323-9.853,2.426,2.31,1.845c7.135-0.341,11.557-0.228,13.313,0.34c4,1.292,15.157,2.392,26.927,2.655
			c10.146,0.227,10.643,0.312,12.078,2.085c1.988,2.455-4.524,11.5-35.146,11.09c-31.45-0.421-34.372-0.268-34.372,1.803
			c0,0.305,2.964,0.609,6.587,0.677c3.622,0.067,8.681,0.685,11.238,1.374c2.558,0.688,6.365,1.317,8.46,1.399
			c6.383,0.25,15.842,1.252,18.787,1.99c4.708,1.18-10.572,12.59-22.977,11.24c-12.203-1.329-27.393-1.332-32.57-0.006
			c-2.199,0.563-3.861,1.247-3.691,1.52c0.168,0.272-1.375,0.567-3.43,0.656c-2.054,0.088-5.031,0.51-6.617,0.937
			c-9.924,2.673-20.885,3.802-35.336,3.64c-13.994-0.157-14.9-0.079-17.946,1.549c-1.765,0.943-3.725,1.714-4.356,1.714
			c-0.918,0-9.738,3.635-27.558,11.365c-3.893,1.688-8.215,3.573-12.978,5.657c-7.18,3.141-17.979,7.59-24,9.887
			c-6.022,2.296-20.034,8.012-31.139,12.702c-25.207,10.645-30.418,12.656-56.382,21.753c-20.833,7.3-26.343,9.445-35.81,13.941
			c-5.529,2.625-25.736,10.006-31.62,11.548c-2.336,0.612-9.261,1.062-17.905,1.162c-12.623,0.146-14.852,0.375-21.334,2.184
			c-15.194,4.239-35.076,8.955-46.829,11.105c-10.116,1.852-31.138,4.602-35.176,4.602c-0.574,0,2.812,1.918,7.527,2.622
			c4.714,0.704,14.744,2.425,22.286,3.824c39.069,7.251,60.892,7.896,87.24,2.578c34.959-7.056,43.13-8.118,69.715-9.055
			c11.315-0.399,21.943-1.062,23.62-1.472c1.676-0.411,4.493-0.755,6.259-0.765c2.341-0.013,3.417-0.403,3.971-1.438
			c0.418-0.781,1.716-1.786,2.884-2.235c2.238-0.858,13.474-3.176,17.363-3.581c1.257-0.131,3.915-0.751,5.905-1.379
			c1.991-0.627,3.619-0.961,3.619-0.741c0,0.219,0.453,0.023,1.007-0.436s2.01-0.812,3.238-0.786
			c1.227,0.027,3.946-0.352,6.041-0.842c15.166-3.548,20.963-4.603,29.333-5.335c10.889-0.954,19.65-1.997,28.953-3.449
			c3.562-0.556,11.95-1.606,18.641-2.333c10.681-1.162,13.842-1.211,25.905-0.404c20.167,1.347,60.309,5.167,77.36,7.359
			c8.172,1.05,24.459,2.575,36.191,3.388c25.016,1.733,83.69,7.821,91.86,9.531c3.116,0.652,7.723,1.826,10.237,2.607
			c14.027,4.358,42.362,6.195,72.382,4.692c16.958-0.85,20.821-1.537,40.382-7.179c11.961-3.45,37.703-8.533,50.667-10.004
			c18.097-2.053,47.901-1.476,77.716,1.505c11.557,1.155,35.259,2.406,57.905,3.056c7.334,0.21,18.134,0.729,24.001,1.152
			c35.895,2.59,51.663,2.917,56.599,1.176c1.69-0.597,3.247-0.912,3.458-0.701s1.281-0.205,2.379-0.924
			c4.126-2.703,11.842-4.192,24.042-4.639l11.81-0.432l4.571-3.511c4.8-3.687,16.633-10.028,24.382-13.065
			c2.514-0.986,5.113-2.252,5.774-2.812c0.661-0.562,1.521-1.021,1.91-1.021c0.389,0,2.591-1.571,4.892-3.49
			c5.707-4.758,19.301-13.897,23.312-15.671c1.806-0.799,4.24-2.251,5.412-3.229c5.575-4.653,12.279-6.55,23.081-6.529
			c7.151,0.014,8.445,0.235,12.19,2.086c2.401,1.186,4.585,2.885,5.114,3.976c1.011,2.085,3.188,2.817,8.791,2.958
			c4.421,0.11,7.059,2.236,6.337,5.108c-0.434,1.73-0.268,1.839,2.812,1.839c4.615,0,6.66,1.635,6.66,5.326
			c0,2.646,0.215,2.979,2.071,3.195c4.838,0.563,7.628,10.882,3.987,14.756l-1.56,1.661l2.236,0.448
			C1258.201,287.604,1261.408,299.063,1258.85,304.767z"/>
	</g>

	<g id="shoulder">
		<polygon fill="none" stroke="#3672A3" stroke-width="2" stroke-miterlimit="10" points="-41.012,969.902 -94.5,877.258 
			-41.012,784.614 65.965,784.614 119.453,877.258 65.965,969.902 	"/>
	</g>
	<g id="hip">
		<polygon fill="none" stroke="#3672A3" stroke-width="2" stroke-miterlimit="10" points="349.988,1339.902 296.5,1247.258 
			349.988,1154.613 456.965,1154.613 510.453,1247.258 456.965,1339.902 	"/>
	</g>
	<g id="spine">
		<polygon fill="none" stroke="#3672A3" stroke-width="2" stroke-miterlimit="10" points="268.988,1139.902 215.5,1047.258 
			268.988,954.614 375.965,954.614 429.453,1047.258 375.965,1139.902 	"/>
	</g>
	<g id="lower_x5F_limb">
		<polygon fill="none" stroke="#3672A3" stroke-width="2" stroke-miterlimit="10" points="808.988,1262.902 755.5,1170.258 
			808.988,1077.614 915.965,1077.614 969.453,1170.258 915.965,1262.902 	"/>
	</g>
	<g id="additional">
		<polygon fill="none" stroke="#3672A3" stroke-width="2" stroke-miterlimit="10" points="-341.012,1175.902 -394.5,1083.258 
			-341.012,990.614 -234.035,990.614 -180.547,1083.258 -234.035,1175.902 	"/>
	</g>
	<g id="chest">
		<polygon fill="none" stroke="#3672A3" stroke-width="2" stroke-miterlimit="10" points="48.988,1168.902 -4.5,1076.258 
			48.988,983.614 155.965,983.614 209.453,1076.258 155.965,1168.902 	"/>
	</g>
	<g id="upper_x5F_limb">
		<polygon fill="none" stroke="#3672A3" stroke-width="2" stroke-miterlimit="10" points="518.988,877.902 465.5,785.258 
			518.988,692.614 625.965,692.614 679.453,785.258 625.965,877.902"/>
	</g>
</g>
</svg>
